<?xml version="1.0" encoding="UTF-8"?><svg id="Layer_2" xmlns="http://www.w3.org/2000/svg" width="256.34" height="87.49" viewBox="0 0 256.34 87.49"><defs><style>.cls-1{stroke-linecap:round;stroke-width:6px;}.cls-1,.cls-2{fill:none;stroke:#21212b;stroke-miterlimit:10;}.cls-3{fill:#ccff29;stroke-width:0px;}.cls-4{fill:#21212b;font-family:Roboto-LightItalic, Roboto;font-size:14.14px;font-style:italic;font-weight:300;opacity:.6;}.cls-2{stroke-width:2px;}.cls-5{letter-spacing:0em;}</style></defs><g id="Layer_2-2"><rect class="cls-3" width="256.34" height="87.49" rx="12.1" ry="12.1"/><text class="cls-4" transform="translate(112.32 72.54)"><tspan x="0" y="0">geospatial se</tspan><tspan class="cls-5" x="80.4" y="0">r</tspan><tspan x="85.21" y="0">vices</tspan></text><circle class="cls-2" cx="78.47" cy="32.32" r="2.62"/><path class="cls-1" d="M126.16,17.06c-4.99,0-7.33-.18-12.32-.18-8.07,0-14.61,6.54-14.61,14.61s6.54,14.61,14.61,14.61c4.99,0,7.33.18,12.32.18"/><circle class="cls-1" cx="145.89" cy="32.16" r="14.58"/><path class="cls-1" d="M196,47v-14.92c0-8.05-6.52-14.57-14.57-14.57s-14.57,6.52-14.57,14.57v14.92"/><path class="cls-1" d="M225.15,47v-14.92c0-8.05-6.52-14.57-14.57-14.57s-14.57,6.52-14.57,14.57v14.92"/><circle class="cls-1" cx="78.43" cy="31.47" r="14.58"/><path class="cls-1" d="M77.44,46.05h-.66c-6.77,0-12.26,5.49-12.26,12.26s5.49,12.26,12.26,12.26h25.09"/><path class="cls-1" d="M28.36,17.26v14.87c0,8.02,6.5,14.53,14.53,14.53s14.53-6.5,14.53-14.53v-14.87"/><line class="cls-1" x1="113.66" y1="31.96" x2="120.78" y2="31.96"/></g></svg>