<?xml version="1.0" encoding="UTF-8"?><svg id="Layer_2" xmlns="http://www.w3.org/2000/svg" width="207.51" height="63.89" viewBox="0 0 207.51 63.89"><defs><style>.cls-1{stroke-linecap:round;stroke-width:6px;}.cls-1,.cls-2{fill:none;stroke:#21212b;stroke-miterlimit:10;}.cls-3{fill:#21212b;font-family:Roboto-LightItalic, Roboto;font-size:14.47px;font-style:italic;font-weight:300;}.cls-2{stroke-width:2px;}.cls-4{letter-spacing:0em;}</style></defs><g id="Layer_2-2"><text class="cls-3" transform="translate(88.93 59.96)"><tspan x="0" y="0">geospatial se</tspan><tspan class="cls-4" x="82.3" y="0">r</tspan><tspan x="87.21" y="0">vices</tspan></text><circle class="cls-2" cx="54.29" cy="18.8" r="2.68"/><path class="cls-1" d="M103.1,3.19c-5.1,0-7.5-.19-12.61-.19-8.26,0-14.96,6.7-14.96,14.96s6.7,14.96,14.96,14.96c5.1,0,7.5.19,12.61.19"/><circle class="cls-1" cx="123.3" cy="18.64" r="14.93"/><path class="cls-1" d="M174.58,33.83v-15.27c0-8.24-6.68-14.92-14.92-14.92s-14.92,6.68-14.92,14.92v15.27"/><path class="cls-1" d="M204.42,33.83v-15.27c0-8.24-6.68-14.92-14.92-14.92s-14.92,6.68-14.92,14.92v15.27"/><circle class="cls-1" cx="54.24" cy="17.93" r="14.93"/><path class="cls-1" d="M53.23,32.86h-.68c-6.93,0-12.54,5.62-12.54,12.54s5.62,12.54,12.54,12.54h25.68"/><path class="cls-1" d="M3,3.39v15.22c0,8.21,6.66,14.87,14.87,14.87s14.87-6.66,14.87-14.87V3.39"/><line class="cls-1" x1="90.3" y1="18.43" x2="97.59" y2="18.43"/></g></svg>